<?xml version="1.0" encoding="UTF-8"?> <svg xmlns="http://www.w3.org/2000/svg" width="435" height="53" viewBox="0 0 435 53" fill="none"><path d="M0.112 29.472C0.112 25.0347 1.072 21.088 2.992 17.632C4.912 14.1333 7.57867 11.424 10.992 9.504C14.448 7.54133 18.352 6.56 22.704 6.56C28.0373 6.56 32.6027 7.968 36.4 10.784C40.1973 13.6 42.736 17.44 44.016 22.304H31.984C31.088 20.4267 29.808 18.9973 28.144 18.016C26.5227 17.0347 24.6667 16.544 22.576 16.544C19.2053 16.544 16.4747 17.7173 14.384 20.064C12.2933 22.4107 11.248 25.5467 11.248 29.472C11.248 33.3973 12.2933 36.5333 14.384 38.88C16.4747 41.2267 19.2053 42.4 22.576 42.4C24.6667 42.4 26.5227 41.9093 28.144 40.928C29.808 39.9467 31.088 38.5173 31.984 36.64H44.016C42.736 41.504 40.1973 45.344 36.4 48.16C32.6027 50.9333 28.0373 52.32 22.704 52.32C18.352 52.32 14.448 51.36 10.992 49.44C7.57867 47.4773 4.912 44.768 2.992 41.312C1.072 37.856 0.112 33.9093 0.112 29.472ZM66.974 52.512C63.4753 52.512 60.318 51.7653 57.502 50.272C54.7287 48.7787 52.5313 46.6453 50.91 43.872C49.3313 41.0987 48.542 37.856 48.542 34.144C48.542 30.4747 49.3527 27.2533 50.974 24.48C52.5953 21.664 54.814 19.5093 57.63 18.016C60.446 16.5227 63.6033 15.776 67.102 15.776C70.6007 15.776 73.758 16.5227 76.574 18.016C79.39 19.5093 81.6087 21.664 83.23 24.48C84.8513 27.2533 85.662 30.4747 85.662 34.144C85.662 37.8133 84.83 41.056 83.166 43.872C81.5447 46.6453 79.3047 48.7787 76.446 50.272C73.63 51.7653 70.4727 52.512 66.974 52.512ZM66.974 43.04C69.0647 43.04 70.8353 42.272 72.286 40.736C73.7793 39.2 74.526 37.0027 74.526 34.144C74.526 31.2853 73.8007 29.088 72.35 27.552C70.942 26.016 69.1927 25.248 67.102 25.248C64.9687 25.248 63.198 26.016 61.79 27.552C60.382 29.0453 59.678 31.2427 59.678 34.144C59.678 37.0027 60.3607 39.2 61.726 40.736C63.134 42.272 64.8833 43.04 66.974 43.04ZM113.228 15.904C117.409 15.904 120.737 17.2693 123.212 20C125.729 22.688 126.988 26.4 126.988 31.136V52H116.108V32.608C116.108 30.2187 115.489 28.3627 114.252 27.04C113.015 25.7173 111.351 25.056 109.26 25.056C107.169 25.056 105.505 25.7173 104.268 27.04C103.031 28.3627 102.412 30.2187 102.412 32.608V52H91.468V16.288H102.412V21.024C103.521 19.4453 105.015 18.208 106.892 17.312C108.769 16.3733 110.881 15.904 113.228 15.904ZM149.121 52.512C146.006 52.512 143.233 51.9787 140.801 50.912C138.369 49.8453 136.449 48.3947 135.041 46.56C133.633 44.6827 132.844 42.592 132.673 40.288H143.489C143.617 41.5253 144.193 42.528 145.217 43.296C146.241 44.064 147.5 44.448 148.993 44.448C150.358 44.448 151.404 44.192 152.129 43.68C152.897 43.1253 153.281 42.4213 153.281 41.568C153.281 40.544 152.748 39.7973 151.681 39.328C150.614 38.816 148.886 38.2613 146.497 37.664C143.937 37.0667 141.804 36.448 140.097 35.808C138.39 35.1253 136.918 34.08 135.681 32.672C134.444 31.2213 133.825 29.28 133.825 26.848C133.825 24.8 134.38 22.944 135.489 21.28C136.641 19.5733 138.305 18.2293 140.481 17.248C142.7 16.2667 145.324 15.776 148.353 15.776C152.833 15.776 156.353 16.8853 158.913 19.104C161.516 21.3227 163.009 24.2667 163.393 27.936H153.281C153.11 26.6987 152.556 25.7173 151.617 24.992C150.721 24.2667 149.526 23.904 148.033 23.904C146.753 23.904 145.772 24.16 145.089 24.672C144.406 25.1413 144.065 25.8027 144.065 26.656C144.065 27.68 144.598 28.448 145.665 28.96C146.774 29.472 148.481 29.984 150.785 30.496C153.43 31.1787 155.585 31.8613 157.249 32.544C158.913 33.184 160.364 34.2507 161.601 35.744C162.881 37.1947 163.542 39.1573 163.585 41.632C163.585 43.7227 162.988 45.6 161.793 47.264C160.641 48.8853 158.956 50.1653 156.737 51.104C154.561 52.0427 152.022 52.512 149.121 52.512ZM203.944 33.568C203.944 34.592 203.881 35.6587 203.753 36.768H178.985C179.155 38.9867 179.859 40.6933 181.097 41.888C182.377 43.04 183.934 43.616 185.769 43.616C188.499 43.616 190.398 42.464 191.465 40.16H203.113C202.515 42.5067 201.427 44.6187 199.849 46.496C198.313 48.3733 196.371 49.8453 194.025 50.912C191.678 51.9787 189.054 52.512 186.153 52.512C182.654 52.512 179.539 51.7653 176.809 50.272C174.078 48.7787 171.945 46.6453 170.409 43.872C168.873 41.0987 168.105 37.856 168.105 34.144C168.105 30.432 168.851 27.1893 170.345 24.416C171.881 21.6427 174.014 19.5093 176.745 18.016C179.475 16.5227 182.611 15.776 186.153 15.776C189.609 15.776 192.681 16.5013 195.369 17.952C198.057 19.4027 200.147 21.472 201.641 24.16C203.177 26.848 203.944 29.984 203.944 33.568ZM192.745 30.688C192.745 28.8107 192.105 27.3173 190.825 26.208C189.545 25.0987 187.945 24.544 186.025 24.544C184.19 24.544 182.633 25.0773 181.353 26.144C180.115 27.2107 179.347 28.7253 179.049 30.688H192.745ZM231.478 15.904C235.659 15.904 238.987 17.2693 241.462 20C243.979 22.688 245.238 26.4 245.238 31.136V52H234.358V32.608C234.358 30.2187 233.739 28.3627 232.502 27.04C231.265 25.7173 229.601 25.056 227.51 25.056C225.419 25.056 223.755 25.7173 222.518 27.04C221.281 28.3627 220.662 30.2187 220.662 32.608V52H209.718V16.288H220.662V21.024C221.771 19.4453 223.265 18.208 225.142 17.312C227.019 16.3733 229.131 15.904 231.478 15.904ZM272.747 42.72V52H267.179C263.211 52 260.118 51.04 257.899 49.12C255.68 47.1573 254.571 43.9787 254.571 39.584V25.376H250.219V16.288H254.571V7.584H265.515V16.288H272.683V25.376H265.515V39.712C265.515 40.7787 265.771 41.5467 266.283 42.016C266.795 42.4853 267.648 42.72 268.843 42.72H272.747Z" fill="white"></path><path d="M340.667 7.072L328.955 52H315.707L308.539 22.432L301.115 52H287.867L276.475 7.072H288.187L294.651 39.776L302.651 7.072H314.683L322.363 39.776L328.891 7.072H340.667ZM351.66 12.576C349.74 12.576 348.161 12.0213 346.924 10.912C345.729 9.76 345.132 8.352 345.132 6.688C345.132 4.98133 345.729 3.57333 346.924 2.464C348.161 1.312 349.74 0.735996 351.66 0.735996C353.537 0.735996 355.073 1.312 356.268 2.464C357.505 3.57333 358.124 4.98133 358.124 6.688C358.124 8.352 357.505 9.76 356.268 10.912C355.073 12.0213 353.537 12.576 351.66 12.576ZM357.1 16.288V52H346.156V16.288H357.1ZM379.559 52.512C376.444 52.512 373.671 51.9787 371.239 50.912C368.807 49.8453 366.887 48.3947 365.479 46.56C364.071 44.6827 363.281 42.592 363.111 40.288H373.927C374.055 41.5253 374.631 42.528 375.655 43.296C376.679 44.064 377.937 44.448 379.431 44.448C380.796 44.448 381.841 44.192 382.567 43.68C383.335 43.1253 383.719 42.4213 383.719 41.568C383.719 40.544 383.185 39.7973 382.119 39.328C381.052 38.816 379.324 38.2613 376.935 37.664C374.375 37.0667 372.241 36.448 370.535 35.808C368.828 35.1253 367.356 34.08 366.119 32.672C364.881 31.2213 364.263 29.28 364.263 26.848C364.263 24.8 364.817 22.944 365.927 21.28C367.079 19.5733 368.743 18.2293 370.919 17.248C373.137 16.2667 375.761 15.776 378.791 15.776C383.271 15.776 386.791 16.8853 389.351 19.104C391.953 21.3227 393.447 24.2667 393.831 27.936H383.719C383.548 26.6987 382.993 25.7173 382.055 24.992C381.159 24.2667 379.964 23.904 378.471 23.904C377.191 23.904 376.209 24.16 375.527 24.672C374.844 25.1413 374.503 25.8027 374.503 26.656C374.503 27.68 375.036 28.448 376.103 28.96C377.212 29.472 378.919 29.984 381.223 30.496C383.868 31.1787 386.023 31.8613 387.687 32.544C389.351 33.184 390.801 34.2507 392.039 35.744C393.319 37.1947 393.98 39.1573 394.023 41.632C394.023 43.7227 393.425 45.6 392.231 47.264C391.079 48.8853 389.393 50.1653 387.175 51.104C384.999 52.0427 382.46 52.512 379.559 52.512ZM434.382 33.568C434.382 34.592 434.318 35.6587 434.19 36.768H409.422C409.593 38.9867 410.297 40.6933 411.534 41.888C412.814 43.04 414.371 43.616 416.206 43.616C418.937 43.616 420.835 42.464 421.902 40.16H433.55C432.953 42.5067 431.865 44.6187 430.286 46.496C428.75 48.3733 426.809 49.8453 424.462 50.912C422.115 51.9787 419.491 52.512 416.59 52.512C413.091 52.512 409.977 51.7653 407.246 50.272C404.515 48.7787 402.382 46.6453 400.846 43.872C399.31 41.0987 398.542 37.856 398.542 34.144C398.542 30.432 399.289 27.1893 400.782 24.416C402.318 21.6427 404.451 19.5093 407.182 18.016C409.913 16.5227 413.049 15.776 416.59 15.776C420.046 15.776 423.118 16.5013 425.806 17.952C428.494 19.4027 430.585 21.472 432.078 24.16C433.614 26.848 434.382 29.984 434.382 33.568ZM423.182 30.688C423.182 28.8107 422.542 27.3173 421.262 26.208C419.982 25.0987 418.382 24.544 416.462 24.544C414.627 24.544 413.07 25.0773 411.79 26.144C410.553 27.2107 409.785 28.7253 409.486 30.688H423.182Z" fill="#FF214F"></path></svg> 